<svg width="1241" height="303" viewBox="0 0 1241 303" fill="none" xmlns="http://www.w3.org/2000/svg">
<g clip-path="url(#clip0_31_50)">
<rect width="1241" height="345" rx="32" fill="#1DB954"/>
<path d="M273.476 63.7355H263.643C259.058 63.7355 254.725 61.6388 251.88 58.0435L239.958 42.9773C233.826 35.2279 222.006 35.4224 216.133 43.3693L211.109 50.1666C205.804 57.3428 195.386 58.1873 188.996 51.9591L186.634 49.6574C178.188 41.4263 164 47.4105 164 59.2038C164 66.5659 169.968 72.534 177.33 72.534H372.568C380.539 72.534 387 66.0726 387 58.102C387 44.9398 370.823 38.6473 361.929 48.3499L358.458 52.1364C352.67 58.4508 342.779 58.6441 336.748 52.5608L323.319 39.0144C317.2 32.8414 307.132 33.1454 301.396 39.6762L284.746 58.6339C281.898 61.8766 277.792 63.7355 273.476 63.7355Z" fill="white"/>
<path d="M273.476 127.343H263.643C259.058 127.343 254.725 125.246 251.88 121.651L239.958 106.585C233.826 98.8354 222.006 99.0299 216.133 106.977L211.109 113.774C205.804 120.95 195.386 121.795 188.996 115.566L186.634 113.265C178.188 105.034 164 111.018 164 122.811C164 130.173 169.968 136.141 177.33 136.141H372.568C380.539 136.141 387 129.68 387 121.709C387 108.547 370.823 102.255 361.929 111.957L358.458 115.744C352.67 122.058 342.779 122.252 336.748 116.168L323.319 102.622C317.2 96.4489 307.132 96.7528 301.396 103.284L284.746 122.241C281.898 125.484 277.792 127.343 273.476 127.343Z" fill="#2B3A30"/>
<path d="M273.476 240.825L263.643 240.825C259.058 240.825 254.725 242.922 251.88 246.518L239.958 261.584C233.826 269.333 222.006 269.139 216.133 261.192L211.109 254.394C205.804 247.218 195.386 246.374 188.996 252.602L186.634 254.904C178.188 263.135 164 257.151 164 245.357C164 237.995 169.968 232.027 177.33 232.027L372.568 232.027C380.539 232.027 387 238.488 387 246.459C387 259.621 370.823 265.914 361.929 256.211L358.458 252.425C352.67 246.11 342.779 245.917 336.748 252L323.319 265.547C317.2 271.72 307.132 271.416 301.396 264.885L284.746 245.927C281.898 242.684 277.792 240.825 273.476 240.825Z" fill="#2B3A30"/>
<path d="M273.476 180.96L263.643 180.96C259.058 180.96 254.725 183.057 251.88 186.652L239.958 201.718C233.826 209.467 222.006 209.273 216.133 201.326L211.109 194.529C205.804 187.352 195.386 186.508 188.996 192.736L186.634 195.038C178.188 203.269 164 197.285 164 185.491C164 178.129 169.968 172.161 177.33 172.161L372.568 172.161C380.539 172.161 387 178.623 387 186.593C387 199.756 370.823 206.048 361.929 196.345L358.458 192.559C352.67 186.245 342.779 186.051 336.748 192.135L323.319 205.681C317.2 211.854 307.132 211.55 301.396 205.019L284.746 186.061C281.898 182.819 277.792 180.96 273.476 180.96Z" fill="white"/>
<path d="M1086.1 124.523L1106.28 121.911L1109.13 144.472C1109.61 150.172 1109.37 155.397 1108.66 159.909C1108.18 164.659 1107.23 167.984 1105.57 171.784C1102.96 175.346 1098.92 178.433 1092.03 182.708H1077.78V166.084C1082.77 164.659 1086.57 163.471 1088.95 162.522C1089.42 158.247 1088.71 155.634 1088.23 147.56L1086.1 124.523ZM1073.51 222.132C1073.51 215.244 1078.97 209.545 1086.1 209.545C1089.18 209.545 1092.98 210.495 1095.12 213.107C1097.26 215.244 1098.92 218.569 1098.92 222.132C1098.92 225.219 1097.26 228.781 1095.12 230.919C1092.98 233.294 1089.18 235.194 1086.1 235.194C1082.77 235.194 1079.68 233.294 1077.07 230.919C1074.7 228.306 1073.51 225.219 1073.51 222.132Z" fill="white"/>
<path d="M907.449 186.745V165.846H923.599C935.473 171.546 960.172 173.683 973.472 174.396C984.396 174.871 996.033 175.108 1007.67 174.396C1019.78 173.921 1031.66 171.783 1042.34 170.596C1057.31 168.934 1069.89 168.221 1077.73 166.084H1091.98V182.708C1082 188.645 1065.86 192.208 1046.86 195.533C1025.24 199.807 1009.81 201.945 987.959 201.945C964.684 201.945 925.024 199.57 907.449 186.745Z" fill="white"/>
<path d="M877.923 166.084C883.148 164.659 890.035 162.759 896.21 160.622L895.735 132.835L915.922 132.598L915.684 147.322V154.447C915.684 158.484 915.922 160.384 917.821 162.284C919.009 163.234 920.196 164.184 923.521 165.846V186.746H907.372C903.097 183.421 900.485 179.621 899.06 175.583C898.585 174.871 898.347 173.921 898.11 173.209C896.922 177.246 895.497 180.808 892.172 182.708H877.923V166.084ZM906.184 220.707C906.184 214.294 911.647 209.307 917.821 209.307C920.671 209.307 923.996 210.257 926.134 212.632C928.034 214.532 929.459 217.619 929.459 220.707C929.459 223.794 928.034 226.881 926.134 229.019C923.996 231.156 920.671 232.819 917.821 232.819C911.647 232.819 906.184 226.644 906.184 220.707ZM877.686 220.707C877.686 214.294 883.148 209.307 889.323 209.307C892.172 209.307 895.497 210.257 897.635 212.632C899.535 214.532 900.96 217.619 900.96 220.707C900.96 223.794 899.535 226.881 897.635 229.019C895.497 231.156 892.172 232.819 889.323 232.819C883.148 232.819 877.686 226.644 877.686 220.707Z" fill="white"/>
<path d="M920.462 91.8817L930.436 88.3193L931.149 92.8317V99.4814L931.386 102.331V103.281C931.624 104.944 931.386 106.606 930.911 108.031C930.674 109.456 929.961 110.881 929.249 112.068L928.774 112.543C928.061 113.731 927.349 114.681 926.399 115.393C925.924 115.631 925.449 116.106 924.974 116.581C924.262 117.056 923.787 117.293 923.074 117.768C922.362 118.243 921.174 118.718 920.462 119.193C919.987 119.193 919.512 119.431 919.274 119.431C918.087 119.668 916.662 119.906 915.237 119.906C913.574 119.906 912.15 119.668 910.725 118.718C909.537 118.243 908.112 117.056 907.4 115.868L906.925 115.631C906.212 114.443 905.5 113.256 905.025 111.831C904.55 112.781 904.075 113.731 903.125 114.443C902.887 114.681 902.65 115.156 902.175 115.393C901.7 115.868 900.987 116.581 900.275 117.056C899.325 117.768 898.375 118.243 897.425 118.718L896.95 118.956C895.525 119.431 894.1 119.668 892.438 119.906H891.488C890.538 119.906 889.588 119.906 888.638 119.668C887.925 119.431 887.451 119.193 886.976 118.956C886.263 118.718 885.788 118.243 885.076 118.006C884.601 117.531 883.888 116.818 883.413 116.343L882.938 115.631C882.226 114.681 881.751 113.256 881.276 112.068C881.038 110.881 880.801 109.693 880.801 108.031C880.801 106.606 881.038 104.469 881.276 103.281C881.513 101.619 881.751 99.7189 882.226 97.819L884.126 91.1692L888.163 91.4067C887.688 93.7816 887.688 95.919 887.451 97.819C887.451 99.4814 887.925 101.144 888.163 102.569L888.4 102.806C888.638 103.994 888.638 104.706 889.113 105.419C889.35 105.656 889.588 105.894 889.825 106.131C890.3 106.369 890.775 106.606 891.25 106.844C892.2 107.319 893.15 107.556 894.338 107.556C895.525 107.556 896.95 107.319 897.663 106.606C899.563 106.131 901.7 103.994 902.887 102.331C903.125 101.856 903.6 101.619 903.837 101.144C904.312 100.431 904.787 99.4814 905.262 98.5314C905.5 97.819 905.975 96.869 906.212 95.919L906.687 94.7316C907.162 93.3066 907.637 91.8817 908.112 90.9317L912.15 91.1692V96.394C912.15 97.344 912.387 98.2939 912.625 99.4814C912.625 99.9564 912.862 100.669 913.1 101.144C913.337 101.619 913.574 102.331 913.574 102.806C914.049 103.519 914.524 104.469 915.237 104.944L915.949 105.656C916.662 106.131 917.612 106.844 918.562 107.081C918.799 107.319 919.274 107.319 919.512 107.319C920.462 107.556 921.412 107.794 922.124 107.794L925.449 108.031L920.462 91.8817Z" fill="white"/>
<path d="M778.906 186.745V165.846H795.056C802.655 169.646 825.692 171.546 834.717 171.546C842.791 171.546 871.053 168.221 877.94 166.084H892.189V182.708C880.552 190.07 845.641 197.432 831.154 197.907C823.792 198.145 816.43 197.195 809.78 196.482C797.431 194.82 786.743 192.208 778.906 186.745Z" fill="white"/>
<path d="M752.265 166.321C758.44 166.321 763.427 166.084 767.94 164.659L767.227 132.835L787.414 132.597L787.176 147.322V154.447C787.176 158.484 787.414 160.384 789.314 162.284C790.501 163.234 791.689 164.184 795.013 165.846V186.745H778.864C775.777 184.37 773.402 181.52 771.977 178.671C771.739 179.146 771.502 179.621 771.502 180.096C770.077 183.183 768.177 186.033 765.802 188.883C761.527 191.97 752.74 193.158 745.378 193.395V171.783L752.265 166.321ZM765.327 104.336C765.327 97.4488 770.789 91.749 777.914 91.749C781.002 91.749 784.801 92.699 786.939 95.3114C789.076 97.4488 790.739 100.774 790.739 104.336C790.739 107.423 789.076 110.986 786.939 113.123C784.801 115.498 781.002 117.398 777.914 117.398C774.589 117.398 771.502 115.498 768.89 113.123C766.515 110.511 765.327 107.423 765.327 104.336Z" fill="white"/>
<path d="M714.973 104.099L734.21 103.861L733.972 118.586L734.447 132.36L734.21 146.609C733.972 151.359 734.447 161.096 738.247 163.471C741.097 165.609 745.609 166.084 752.259 166.321V190.783L745.372 193.395C740.385 193.633 736.11 192.92 732.072 191.495C728.748 189.833 725.185 187.458 723.048 185.083C720.673 181.521 718.06 178.196 717.111 173.921C716.636 172.733 716.161 171.546 715.923 170.121C714.498 174.158 712.361 177.246 709.748 179.383C704.286 182.233 698.111 183.183 691.937 183.183C688.137 183.183 683.862 182.708 679.824 181.046C676.5 178.908 673.65 175.821 670.8 171.546C668.9 168.221 667.475 162.996 667.237 157.296C667.237 151.834 668.425 147.322 669.612 143.522C671.275 140.435 674.362 136.397 676.737 133.31C679.35 129.748 683.862 127.848 688.374 125.235C692.411 123.573 697.399 121.198 702.624 120.723C706.898 119.773 710.698 118.823 715.211 118.111V117.398L714.973 104.099ZM667 79.3996C667 72.9873 672.462 68 678.637 68C681.487 68 684.812 68.95 686.949 71.3249C688.849 73.2248 690.274 76.3122 690.274 79.3996C690.274 82.4869 688.849 85.5743 686.949 87.7117C684.812 89.8491 681.487 91.5116 678.637 91.5116C672.462 91.5116 667 85.3368 667 79.3996ZM695.736 79.3996C695.736 72.9873 701.199 68 707.373 68C710.223 68 713.548 68.95 715.686 71.3249C717.586 73.2248 719.01 76.3122 719.01 79.3996C719.01 82.4869 717.586 85.5743 715.686 87.7117C713.548 89.8491 710.223 91.5116 707.373 91.5116C701.199 91.5116 695.736 85.3368 695.736 79.3996ZM699.299 158.959C704.286 158.959 709.748 157.771 714.498 156.584L714.736 145.422V137.822C709.511 137.822 704.286 138.772 700.486 139.485C695.499 140.672 688.849 143.522 684.574 146.372C682.912 148.509 682.199 151.597 681.962 153.022C686.949 156.584 693.124 158.959 699.299 158.959Z" fill="white"/>
</g>
<defs>
<clipPath id="clip0_31_50">
<rect width="1241" height="303" rx="151.5" fill="white"/>
</clipPath>
</defs>
</svg>
