<svg width="415" height="415" viewBox="0 0 415 415" fill="none" xmlns="http://www.w3.org/2000/svg">
<rect x="6.5" y="6.5" width="402" height="402" rx="25.5" fill="white" stroke="black" stroke-width="13"/>
<path d="M68.9562 276.384L77.9162 276.256L78.4282 290.848L78.0443 297.888C78.0443 299.424 77.6602 308 79.9642 309.664C81.5002 311.2 84.1882 311.456 88.0283 311.456V322.208L84.4443 324C81.3722 324.256 78.8122 323.488 76.7642 322.592C74.5882 321.696 72.9242 320.16 72.0282 318.624C71.1323 316.704 69.8522 315.04 69.4682 312.736C68.8282 314.4 68.0603 315.552 66.9083 316.576C63.8363 318.112 60.6363 318.24 57.6922 318.368C55.3883 318.752 52.4442 318.24 50.0123 317.216C48.2202 316.32 46.6842 314.528 45.4042 312.352C44.3802 310.56 43.6122 308 43.7402 304.672C43.4842 301.728 44.1242 299.296 45.0203 297.248C46.0442 295.328 47.5802 293.152 48.8602 291.744C50.5242 289.824 52.7002 289.056 55.3883 287.52C57.6922 286.752 59.9962 285.6 62.4282 285.216C64.8603 284.832 66.9083 284.064 69.0843 283.808V283.424L68.9562 276.384ZM44.5082 261.92C44.5082 260.384 45.0203 259.232 46.3002 257.824C47.5802 256.672 48.8602 256.16 50.3963 256.16C53.7242 256.16 56.2842 258.592 56.2842 261.92C56.2842 263.456 55.6443 264.992 54.6203 266.144C53.5963 267.168 51.9322 268.064 50.3963 268.064C48.8602 268.064 47.4522 267.168 46.3002 266.144C45.0203 264.864 44.5082 263.456 44.5082 261.92ZM59.4842 261.92C59.4842 260.384 59.9962 259.232 61.2762 257.824C62.5563 256.672 63.8363 256.16 65.3723 256.16C68.7002 256.16 71.2603 258.592 71.2603 261.92C71.2603 263.456 70.6203 264.992 69.5963 266.144C68.5723 267.168 66.9083 268.064 65.3723 268.064C63.8363 268.064 62.4282 267.168 61.2762 266.144C59.9962 264.864 59.4842 263.456 59.4842 261.92ZM60.6363 307.488C63.1962 307.36 65.5002 307.232 68.7002 306.336C68.7002 305.824 68.7002 305.44 68.7002 304.928L69.0843 298.016L68.9562 292.64C66.2682 292.896 63.1962 293.408 60.8922 294.304C58.5883 294.816 57.3082 295.584 55.1323 296.736C53.7242 297.76 52.0602 298.656 50.6522 300.064C50.2683 301.088 49.8843 303.264 49.7563 303.904C53.9802 306.976 55.2602 307.488 60.6363 307.488ZM88.1182 311.456C91.3182 311.456 94.2623 311.328 97.2062 310.688L96.6942 291.744L106.55 291.616L106.678 300.576V303.904C106.55 306.592 106.806 308.384 107.83 309.408C108.726 310.176 109.622 310.56 111.158 311.328V320.416H102.454C100.79 319.136 99.8943 318.112 99.2542 316.832C99.1263 317.088 99.1263 317.344 98.9982 317.472C98.2302 318.752 97.2062 319.904 96.1822 320.928C92.8542 323.36 88.6302 324 84.4062 324V314.784L88.1182 311.456ZM95.6702 275.616C95.6702 272.16 98.6143 269.472 101.942 269.472C103.606 269.472 105.398 269.856 106.422 271.264C107.446 272.416 108.342 273.952 108.342 275.616C108.342 277.28 107.446 278.944 106.422 280.096C105.398 281.12 103.606 282.144 101.942 282.144C98.6143 282.144 95.6702 278.816 95.6702 275.616ZM102.442 320.416V311.328H111.146C114.346 312.864 118.57 314.016 123.563 314.784C127.914 315.424 132.779 315.424 138.027 315.68C143.915 315.936 150.187 316.192 156.458 315.936C162.986 315.552 169.386 314.528 175.146 313.888C183.21 312.992 189.994 312.608 194.218 311.456H199.338V319.904C190.89 324.384 160.17 328.608 149.93 328.608C145.194 328.608 140.458 328.352 135.851 328.096C125.098 327.584 111.53 326.944 102.442 320.416ZM215.079 268.976L217.255 268.08L218.023 267.952L220.583 267.056L220.967 269.232V269.744L221.095 271.536V273.84L221.223 275.504V276.144C221.351 277.04 221.223 278.064 220.967 278.96C220.839 279.728 220.455 280.624 219.943 281.392L219.815 281.648C219.303 282.288 218.919 282.8 218.279 283.312C218.023 283.568 217.767 283.824 217.511 284.08C217.127 284.336 216.743 284.464 216.359 284.72C215.847 284.976 215.207 285.232 214.823 285.488C214.567 285.488 214.311 285.616 214.055 285.616C213.287 285.872 212.519 286 211.751 286C210.727 286 209.831 285.744 209.063 285.232C208.423 284.976 207.655 284.208 207.015 283.44C206.503 282.672 205.991 281.904 205.735 281.008C205.479 281.52 205.223 282.288 204.711 282.8C204.583 282.928 204.455 283.184 204.199 283.312C203.943 283.696 203.559 284.08 203.175 284.336C202.535 284.848 202.023 285.104 201.383 285.488L201.127 285.616C200.231 285.872 199.335 286 198.439 286H197.671C197.159 285.872 196.647 285.872 196.135 285.744C195.751 285.616 195.495 285.488 195.239 285.36C194.855 285.232 194.599 284.976 194.215 284.848C193.831 284.592 193.447 284.08 193.063 283.696L192.807 283.44C192.423 282.8 192.167 282.032 191.911 281.392C191.783 280.624 191.655 279.856 191.655 278.96C191.655 277.808 191.655 277.168 191.911 276.016C192.039 274.992 192.167 273.968 192.551 272.688L193.703 268.848L196.135 269.104C195.879 270.512 195.879 271.664 195.751 272.688C195.751 273.84 195.751 274.736 195.879 275.504L196.007 275.888C196.135 276.528 196.135 277.04 196.391 277.552C196.519 277.68 196.647 277.808 196.775 277.936C197.287 278.704 198.567 278.96 199.463 278.96C200.359 278.96 201.127 278.832 201.767 278.448C203.431 278.064 204.455 276.016 205.095 274.736C205.351 274.352 205.607 273.84 205.863 273.2C205.991 272.688 206.247 272.176 206.375 271.536L206.631 270.768C206.887 270 207.143 269.232 207.399 268.464L209.959 268.848V271.28L210.087 271.92C210.087 272.432 210.215 272.944 210.343 273.584C210.343 273.968 210.471 274.48 210.599 274.736C210.727 274.992 210.855 275.376 210.855 275.632C211.111 276.272 211.367 276.784 211.751 277.04L212.135 277.424C212.519 277.936 213.031 278.32 213.671 278.576C213.927 278.704 214.055 278.704 214.311 278.832C214.823 278.96 215.335 279.088 215.975 279.088L218.023 279.472L215.719 271.024L215.079 268.976ZM194.188 311.456C195.595 311.072 198.668 310.304 201.227 309.536L200.843 291.744L210.699 291.616L210.827 300.576V303.904C210.699 306.592 210.955 308.384 211.979 309.408C212.876 310.176 213.771 310.56 215.307 311.328V320.416H206.603C204.683 319.008 203.916 317.728 203.148 316.32C203.02 316.064 202.891 315.808 202.763 315.68C202.251 317.344 201.227 318.88 199.308 319.904H194.188V311.456ZM207.628 339.36C207.628 337.824 208.14 336.672 209.42 335.264C210.699 334.112 211.979 333.6 213.515 333.6C216.844 333.6 219.404 336.032 219.404 339.36C219.404 340.896 218.763 342.432 217.739 343.584C216.715 344.608 215.051 345.504 213.515 345.504C211.979 345.504 210.571 344.608 209.42 343.584C208.14 342.304 207.628 340.896 207.628 339.36ZM192.652 339.36C192.652 337.824 193.164 336.672 194.443 335.264C195.723 334.112 197.003 333.6 198.539 333.6C201.867 333.6 204.428 336.032 204.428 339.36C204.428 340.896 203.788 342.432 202.763 343.584C201.739 344.608 200.075 345.504 198.539 345.504C197.003 345.504 195.595 344.608 194.443 343.584C193.164 342.304 192.652 340.896 192.652 339.36ZM206.599 320.416V311.328H215.303C221.447 314.272 248.967 316.704 256.903 316.96C264.199 317.216 271.879 316.704 279.559 316.576C287.239 316.576 294.919 316.96 302.471 316.576C310.151 316.32 317.703 315.04 324.615 314.528C337.799 313.504 348.551 313.12 353.927 311.456H359.047V319.904C354.439 322.336 340.743 324 322.951 326.048C316.167 326.688 308.743 328.352 301.063 328.864C292.871 329.376 284.295 329.12 275.975 329.248C267.527 329.376 259.207 329.888 251.399 329.632C241.415 329.12 214.151 325.792 206.599 320.416ZM358.674 287.136L368.017 285.728L369.297 297.504C369.809 301.088 369.553 304.16 369.297 306.72C368.785 309.664 368.146 311.584 367.634 313.632C365.713 316.32 362.513 318.112 359.058 319.904H353.938V311.456C356.881 310.688 358.93 309.92 360.081 309.28C360.593 306.976 360.081 304.8 359.825 299.552L358.674 287.136ZM351.89 339.872C351.89 336.416 354.833 333.728 358.161 333.728C359.825 333.728 361.617 334.112 362.641 335.52C363.666 336.672 364.561 338.208 364.561 339.872C364.561 341.536 363.666 343.2 362.641 344.352C361.617 345.376 359.825 346.4 358.161 346.4C354.833 346.4 351.89 343.072 351.89 339.872Z" fill="#1DB954"/>
<path d="M102.218 128.993L70.1321 169.717C62.3803 179.556 69.3887 194 81.9145 194H335.905C330.415 194 325.365 191.002 322.736 186.183L285.484 117.887C279.945 107.733 265.483 107.404 259.488 117.296L240.828 148.084C232.961 161.064 213 155.488 213 140.309V135.863C213 121.9 195.596 115.511 186.562 126.159L155.438 162.841C146.404 173.489 129 167.1 129 153.137V138.276C129 124.041 111.027 117.811 102.218 128.993Z" fill="#2B3A30" stroke="#1DB954" stroke-width="8" stroke-linecap="round"/>
<path d="M51 194L98.6466 133.525C108.631 120.853 129 127.913 129 144.046V147.688C129 163.513 148.724 170.754 158.963 158.687L185.319 127.624C194.778 116.476 213 123.165 213 137.785C213 153.677 233.9 159.516 242.136 145.925L257.686 120.268C264.48 109.057 280.871 109.43 287.148 120.939L322.168 185.14C325.147 190.602 330.871 194 337.092 194H364.5" stroke="#1DB954" stroke-width="8" stroke-linecap="round"/>
<rect x="6.5" y="6.5" width="402" height="402" rx="25.5" fill="white" stroke="black" stroke-width="13"/>
<path d="M59 97.3822V106.866C59 115.15 65.7157 121.866 74 121.866H342C350.284 121.866 357 115.15 357 106.866V91.562C357 77.8819 340.187 71.3418 330.943 81.4262L315.283 98.5094C309.495 104.824 299.603 105.017 293.573 98.9337L268.096 73.2337C261.977 67.0608 251.909 67.3647 246.173 73.8955L218.849 105.007C216.001 108.25 211.895 110.109 207.579 110.109H189.714C185.129 110.109 180.796 108.012 177.951 104.416L156.412 77.1966C150.28 69.4473 138.46 69.6418 132.586 77.5887L118.769 96.2825C113.365 103.595 102.749 104.455 96.2374 98.1089L84.4692 86.6399C74.9654 77.3777 59 84.1115 59 97.3822Z" fill="#2B3A30"/>
<path d="M357 314.484L357 305C357 296.716 350.284 290 342 290L74 290C65.7157 290 59 296.716 59 305L59 320.304C59 333.984 75.8133 340.524 85.0573 330.44L100.717 313.357C106.505 307.042 116.397 306.849 122.427 312.932L147.904 338.632C154.023 344.805 164.091 344.501 169.827 337.971L197.151 306.859C199.999 303.617 204.105 301.758 208.421 301.758L226.286 301.758C230.871 301.758 235.204 303.854 238.049 307.45L259.588 334.67C265.72 342.419 277.54 342.224 283.414 334.277L297.231 315.584C302.635 308.271 313.251 307.411 319.763 313.757L331.531 325.226C341.035 334.488 357 327.755 357 314.484Z" fill="#2B3A30"/>
<path d="M95.0812 171.872L105.449 171.744L105.321 179.68L105.577 187.104L105.449 194.784C105.321 197.344 105.577 202.592 107.625 203.872C109.161 205.024 111.593 205.28 115.177 205.408V218.592L111.465 220C108.777 220.128 106.473 219.744 104.297 218.976C102.505 218.08 100.585 216.8 99.4333 215.52C98.1532 213.6 96.7453 211.808 96.2333 209.504C95.9772 208.864 95.7213 208.224 95.5932 207.456C94.8252 209.632 93.6733 211.296 92.2652 212.448C89.3212 213.984 85.9933 214.496 82.6652 214.496C80.6172 214.496 78.3133 214.24 76.1373 213.344C74.3452 212.192 72.8092 210.528 71.2733 208.224C70.2492 206.432 69.4812 203.616 69.3532 200.544C69.3532 197.6 69.9932 195.168 70.6332 193.12C71.5292 191.456 73.1932 189.28 74.4732 187.616C75.8813 185.696 78.3133 184.672 80.7453 183.264C82.9212 182.368 85.6092 181.088 88.4253 180.832C90.7292 180.32 92.7772 179.808 95.2093 179.424V179.04L95.0812 171.872ZM69.2252 158.56C69.2252 155.104 72.1692 152.416 75.4973 152.416C77.0332 152.416 78.8252 152.928 79.9773 154.208C81.0013 155.232 81.7693 156.896 81.7693 158.56C81.7693 160.224 81.0013 161.888 79.9773 163.04C78.8252 164.192 77.0332 165.088 75.4973 165.088C72.1692 165.088 69.2252 161.76 69.2252 158.56ZM84.7133 158.56C84.7133 155.104 87.6572 152.416 90.9853 152.416C92.5213 152.416 94.3132 152.928 95.4652 154.208C96.4892 155.232 97.2573 156.896 97.2573 158.56C97.2573 160.224 96.4892 161.888 95.4652 163.04C94.3132 164.192 92.5213 165.088 90.9853 165.088C87.6572 165.088 84.7133 161.76 84.7133 158.56ZM86.6332 201.44C89.3212 201.44 92.2652 200.8 94.8252 200.16L94.9532 194.144V190.048C92.1372 190.048 89.3212 190.56 87.2732 190.944C84.5852 191.584 81.0013 193.12 78.6972 194.656C77.8012 195.808 77.4172 197.472 77.2892 198.24C79.9773 200.16 83.3052 201.44 86.6332 201.44ZM115.181 205.408C118.509 205.408 121.197 205.28 123.629 204.512L123.245 187.36L134.125 187.232L133.997 195.168V199.008C133.997 201.184 134.125 202.208 135.149 203.232C135.789 203.744 136.429 204.256 138.221 205.152V216.416H129.517C127.853 215.136 126.573 213.6 125.805 212.064C125.677 212.32 125.549 212.576 125.549 212.832C124.781 214.496 123.757 216.032 122.477 217.568C120.173 219.232 115.437 219.872 111.469 220V208.352L115.181 205.408ZM122.221 172C122.221 168.288 125.165 165.216 129.005 165.216C130.669 165.216 132.717 165.728 133.869 167.136C135.021 168.288 135.917 170.08 135.917 172C135.917 173.664 135.021 175.584 133.869 176.736C132.717 178.016 130.669 179.04 129.005 179.04C127.213 179.04 125.549 178.016 124.141 176.736C122.861 175.328 122.221 173.664 122.221 172ZM129.539 216.416V205.152H138.243C144.643 208.224 157.955 209.376 165.123 209.76C171.011 210.016 177.283 210.144 183.555 209.76C190.083 209.504 196.483 208.352 202.243 207.712C210.307 206.816 217.091 206.432 221.315 205.28H228.995V214.24C223.619 217.44 214.915 219.36 204.675 221.152C193.027 223.456 184.707 224.608 172.931 224.608C160.387 224.608 139.011 223.328 129.539 216.416ZM244.271 165.896L249.647 163.976L250.031 166.408V169.992L250.159 171.528V172.04C250.287 172.936 250.159 173.832 249.903 174.6C249.775 175.368 249.391 176.136 249.007 176.776L248.751 177.032C248.367 177.672 247.983 178.184 247.471 178.568C247.215 178.696 246.959 178.952 246.703 179.208C246.319 179.464 246.063 179.592 245.679 179.848C245.295 180.104 244.655 180.36 244.271 180.616C244.015 180.616 243.759 180.744 243.631 180.744C242.991 180.872 242.223 181 241.455 181C240.559 181 239.791 180.872 239.023 180.36C238.383 180.104 237.615 179.464 237.231 178.824L236.975 178.696C236.591 178.056 236.207 177.416 235.951 176.648C235.695 177.16 235.439 177.672 234.927 178.056C234.799 178.184 234.671 178.44 234.415 178.568C234.159 178.824 233.775 179.208 233.391 179.464C232.879 179.848 232.367 180.104 231.855 180.36L231.599 180.488C230.831 180.744 230.063 180.872 229.167 181H228.655C228.143 181 227.631 181 227.119 180.872C226.735 180.744 226.479 180.616 226.223 180.488C225.839 180.36 225.583 180.104 225.199 179.976C224.943 179.72 224.559 179.336 224.303 179.08L224.047 178.696C223.663 178.184 223.407 177.416 223.151 176.776C223.023 176.136 222.895 175.496 222.895 174.6C222.895 173.832 223.023 172.68 223.151 172.04C223.279 171.144 223.407 170.12 223.663 169.096L224.687 165.512L226.863 165.64C226.607 166.92 226.607 168.072 226.479 169.096C226.479 169.992 226.735 170.888 226.863 171.656L226.991 171.784C227.119 172.424 227.119 172.808 227.375 173.192C227.503 173.32 227.631 173.448 227.759 173.576C228.015 173.704 228.271 173.832 228.527 173.96C229.039 174.216 229.551 174.344 230.191 174.344C230.831 174.344 231.599 174.216 231.983 173.832C233.007 173.576 234.159 172.424 234.799 171.528C234.927 171.272 235.183 171.144 235.311 170.888C235.567 170.504 235.823 169.992 236.079 169.48C236.207 169.096 236.463 168.584 236.591 168.072L236.847 167.432C237.103 166.664 237.359 165.896 237.615 165.384L239.791 165.512V168.328C239.791 168.84 239.919 169.352 240.047 169.992C240.047 170.248 240.175 170.632 240.303 170.888C240.431 171.144 240.559 171.528 240.559 171.784C240.815 172.168 241.071 172.68 241.455 172.936L241.839 173.32C242.223 173.576 242.735 173.96 243.247 174.088C243.375 174.216 243.631 174.216 243.759 174.216C244.271 174.344 244.783 174.472 245.167 174.472L246.959 174.6L244.271 165.896ZM221.344 205.28C224.16 204.512 227.872 203.488 231.2 202.336L230.944 187.36L241.824 187.232L241.696 195.168V199.008C241.696 201.184 241.824 202.208 242.848 203.232C243.488 203.744 244.128 204.256 245.92 205.152V216.416H237.216C234.912 214.624 233.504 212.576 232.736 210.4C232.48 210.016 232.352 209.504 232.224 209.12C231.584 211.296 230.816 213.216 229.024 214.24H221.344V205.28ZM236.576 234.72C236.576 231.264 239.52 228.576 242.848 228.576C244.384 228.576 246.176 229.088 247.328 230.368C248.352 231.392 249.12 233.056 249.12 234.72C249.12 236.384 248.352 238.048 247.328 239.2C246.176 240.352 244.384 241.248 242.848 241.248C239.52 241.248 236.576 237.92 236.576 234.72ZM221.216 234.72C221.216 231.264 224.16 228.576 227.488 228.576C229.024 228.576 230.816 229.088 231.968 230.368C232.992 231.392 233.76 233.056 233.76 234.72C233.76 236.384 232.992 238.048 231.968 239.2C230.816 240.352 229.024 241.248 227.488 241.248C224.16 241.248 221.216 237.92 221.216 234.72ZM237.258 216.416V205.152H245.962C252.362 208.224 265.674 209.376 272.842 209.76C278.73 210.016 285.002 210.144 291.274 209.76C297.802 209.504 304.202 208.352 309.962 207.712C318.026 206.816 324.81 206.432 329.034 205.28H336.714V214.24C331.338 217.44 322.634 219.36 312.394 221.152C300.746 223.456 292.426 224.608 280.65 224.608C268.106 224.608 246.73 223.328 237.258 216.416ZM333.543 182.88L344.422 181.472L345.958 193.632C346.214 196.704 346.086 199.52 345.702 201.952C345.446 204.512 344.934 206.304 344.039 208.352C342.63 210.272 340.454 211.936 336.742 214.24H329.062V205.28C331.75 204.512 333.799 203.872 335.079 203.36C335.334 201.056 334.95 199.648 334.694 195.296L333.543 182.88ZM326.758 235.488C326.758 231.776 329.703 228.704 333.543 228.704C335.206 228.704 337.254 229.216 338.407 230.624C339.558 231.776 340.454 233.568 340.454 235.488C340.454 237.152 339.558 239.072 338.407 240.224C337.254 241.504 335.206 242.528 333.543 242.528C331.75 242.528 330.086 241.504 328.679 240.224C327.399 238.816 326.758 237.152 326.758 235.488Z" fill="#1DB954"/>
</svg>
