<svg width="769" height="345" viewBox="0 0 769 345" fill="none" xmlns="http://www.w3.org/2000/svg">
<rect width="769" height="345" rx="32" fill="#1DB954"/>
<path d="M172.254 79.2269H161.028C156.444 79.2269 152.111 77.1301 149.266 73.5348L135.677 56.3619C129.545 48.6126 117.725 48.8071 111.851 56.754L105.46 65.4009C100.056 72.713 89.4401 73.5735 82.9283 67.2273L79.9534 64.328C71.0152 55.617 56 61.9501 56 74.431C56 82.2222 62.3161 88.5383 70.1073 88.5383H277C285.284 88.5383 292 81.8226 292 73.5383V72.562C292 58.8819 275.187 52.3418 265.943 62.4262L261.175 67.6278C255.386 73.9421 245.495 74.1354 239.464 68.0521L223.947 52.399C217.828 46.2261 207.76 46.5301 202.024 53.0609L183.524 74.1252C180.676 77.3679 176.57 79.2269 172.254 79.2269Z" fill="white"/>
<path d="M172.254 146.542H161.028C156.444 146.542 152.111 144.446 149.266 140.85L135.677 123.677C129.545 115.928 117.725 116.123 111.851 124.069L105.46 132.716C100.056 140.028 89.4401 140.889 82.9283 134.543L79.9534 131.643C71.0152 122.932 56 129.266 56 141.746C56 149.538 62.3161 155.854 70.1073 155.854H277C285.284 155.854 292 149.138 292 140.854V139.877C292 126.197 275.187 119.657 265.943 129.742L261.175 134.943C255.386 141.257 245.495 141.451 239.464 135.368L223.947 119.714C217.828 113.542 207.76 113.845 202.024 120.376L183.524 141.441C180.676 144.683 176.57 146.542 172.254 146.542Z" fill="#2B3A30"/>
<path d="M172.254 266.64L161.028 266.64C156.444 266.64 152.111 268.737 149.266 272.332L135.677 289.505C129.545 297.255 117.725 297.06 111.851 289.113L105.46 280.466C100.056 273.154 89.4401 272.294 82.9284 278.64L79.9534 281.539C71.0152 290.25 56 283.917 56 271.436C56 263.645 62.3161 257.329 70.1073 257.329L277 257.329C285.284 257.329 292 264.045 292 272.329L292 273.305C292 286.985 275.187 293.525 265.943 283.441L261.175 278.239C255.386 271.925 245.495 271.732 239.464 277.815L223.947 293.468C217.828 299.641 207.76 299.337 202.024 292.806L183.524 271.742C180.676 268.499 176.57 266.64 172.254 266.64Z" fill="#2B3A30"/>
<path d="M172.254 203.285L161.028 203.285C156.444 203.285 152.111 205.381 149.266 208.977L135.677 226.15C129.545 233.899 117.725 233.704 111.851 225.757L105.46 217.111C100.056 209.798 89.4401 208.938 82.9284 215.284L79.9534 218.183C71.0152 226.894 56 220.561 56 208.081C56 200.289 62.3161 193.973 70.1073 193.973L277 193.973C285.284 193.973 292 200.689 292 208.973L292 209.949C292 223.63 275.187 230.17 265.943 220.085L261.175 214.884C255.386 208.569 245.495 208.376 239.464 214.459L223.947 230.112C217.828 236.285 207.76 235.981 202.024 229.451L183.524 208.386C180.676 205.144 176.57 203.285 172.254 203.285Z" fill="white"/>
<path d="M401.181 132.309L416.625 132.119L416.435 143.94L416.816 154.999L416.625 166.439C416.435 170.252 416.816 178.069 419.867 179.976C422.155 181.692 425.777 182.073 431.116 182.264V201.903L425.587 204C421.583 204.191 418.151 203.619 414.909 202.475C412.24 201.14 409.38 199.233 407.664 197.327C405.757 194.467 403.66 191.797 402.897 188.365C402.516 187.412 402.135 186.459 401.944 185.315C400.8 188.556 399.084 191.035 396.987 192.751C392.601 195.039 387.644 195.801 382.687 195.801C379.636 195.801 376.204 195.42 372.963 194.085C370.293 192.369 368.005 189.891 365.717 186.459C364.192 183.789 363.048 179.595 362.857 175.019C362.857 170.633 363.811 167.011 364.764 163.96C366.099 161.481 368.577 158.24 370.484 155.761C372.581 152.901 376.204 151.376 379.827 149.279C383.068 147.944 387.072 146.037 391.267 145.656C394.699 144.893 397.749 144.131 401.372 143.559V142.987L401.181 132.309ZM362.667 112.48C362.667 107.332 367.052 103.328 372.009 103.328C374.297 103.328 376.967 104.091 378.683 105.997C380.208 107.523 381.352 110.001 381.352 112.48C381.352 114.959 380.208 117.437 378.683 119.153C376.967 120.869 374.297 122.204 372.009 122.204C367.052 122.204 362.667 117.247 362.667 112.48ZM385.737 112.48C385.737 107.332 390.123 103.328 395.08 103.328C397.368 103.328 400.037 104.091 401.753 105.997C403.279 107.523 404.423 110.001 404.423 112.48C404.423 114.959 403.279 117.437 401.753 119.153C400.037 120.869 397.368 122.204 395.08 122.204C390.123 122.204 385.737 117.247 385.737 112.48ZM388.597 176.353C392.601 176.353 396.987 175.4 400.8 174.447L400.991 165.485V159.384C396.796 159.384 392.601 160.147 389.551 160.719C385.547 161.672 380.208 163.96 376.776 166.248C375.441 167.964 374.869 170.443 374.679 171.587C378.683 174.447 383.64 176.353 388.597 176.353ZM431.121 182.264C436.078 182.264 440.082 182.073 443.705 180.929L443.133 155.38L459.34 155.189L459.149 167.011V172.731C459.149 175.972 459.34 177.497 460.865 179.023C461.818 179.785 462.772 180.548 465.441 181.883V198.661H452.476C449.997 196.755 448.09 194.467 446.946 192.179C446.756 192.56 446.565 192.941 446.565 193.323C445.421 195.801 443.896 198.089 441.989 200.377C438.557 202.856 431.502 203.809 425.592 204V186.649L431.121 182.264ZM441.608 132.5C441.608 126.971 445.993 122.395 451.713 122.395C454.192 122.395 457.242 123.157 458.958 125.255C460.674 126.971 462.009 129.64 462.009 132.5C462.009 134.979 460.674 137.839 458.958 139.555C457.242 141.461 454.192 142.987 451.713 142.987C449.044 142.987 446.565 141.461 444.468 139.555C442.561 137.457 441.608 134.979 441.608 132.5ZM452.509 198.661V181.883H465.475C471.576 184.933 490.071 186.459 497.316 186.459C503.799 186.459 526.488 183.789 532.017 182.073H543.457V195.42C534.115 201.331 506.087 207.241 494.456 207.623C488.545 207.813 482.635 207.051 477.296 206.479C467.381 205.144 458.801 203.047 452.509 198.661ZM566.156 122.501L574.164 119.641L574.736 123.264V128.603L574.926 130.891V131.653C575.117 132.988 574.926 134.323 574.545 135.467C574.354 136.611 573.782 137.755 573.21 138.708L572.829 139.089C572.257 140.043 571.685 140.805 570.922 141.377C570.541 141.568 570.16 141.949 569.778 142.331C569.206 142.712 568.825 142.903 568.253 143.284C567.681 143.665 566.728 144.047 566.156 144.428C565.774 144.428 565.393 144.619 565.202 144.619C564.249 144.809 563.105 145 561.961 145C560.626 145 559.482 144.809 558.338 144.047C557.385 143.665 556.241 142.712 555.669 141.759L555.288 141.568C554.716 140.615 554.144 139.661 553.762 138.517C553.381 139.28 553 140.043 552.237 140.615C552.046 140.805 551.856 141.187 551.474 141.377C551.093 141.759 550.521 142.331 549.949 142.712C549.186 143.284 548.424 143.665 547.661 144.047L547.28 144.237C546.136 144.619 544.992 144.809 543.657 145H542.894C542.132 145 541.369 145 540.606 144.809C540.034 144.619 539.653 144.428 539.272 144.237C538.7 144.047 538.318 143.665 537.746 143.475C537.365 143.093 536.793 142.521 536.412 142.14L536.03 141.568C535.458 140.805 535.077 139.661 534.696 138.708C534.505 137.755 534.314 136.801 534.314 135.467C534.314 134.323 534.505 132.607 534.696 131.653C534.886 130.319 535.077 128.793 535.458 127.268L536.984 121.929L540.225 122.12C539.844 124.027 539.844 125.743 539.653 127.268C539.653 128.603 540.034 129.937 540.225 131.081L540.416 131.272C540.606 132.225 540.606 132.797 540.988 133.369C541.178 133.56 541.369 133.751 541.56 133.941C541.941 134.132 542.322 134.323 542.704 134.513C543.466 134.895 544.229 135.085 545.182 135.085C546.136 135.085 547.28 134.895 547.852 134.323C549.377 133.941 551.093 132.225 552.046 130.891C552.237 130.509 552.618 130.319 552.809 129.937C553.19 129.365 553.572 128.603 553.953 127.84C554.144 127.268 554.525 126.505 554.716 125.743L555.097 124.789C555.478 123.645 555.86 122.501 556.241 121.739L559.482 121.929V126.124C559.482 126.887 559.673 127.649 559.864 128.603C559.864 128.984 560.054 129.556 560.245 129.937C560.436 130.319 560.626 130.891 560.626 131.272C561.008 131.844 561.389 132.607 561.961 132.988L562.533 133.56C563.105 133.941 563.868 134.513 564.63 134.704C564.821 134.895 565.202 134.895 565.393 134.895C566.156 135.085 566.918 135.276 567.49 135.276L570.16 135.467L566.156 122.501ZM532.004 182.073C536.199 180.929 541.728 179.404 546.685 177.688L546.304 155.38L562.511 155.189L562.32 167.011V172.731C562.32 175.972 562.511 177.497 564.036 179.023C564.989 179.785 565.943 180.548 568.612 181.883V198.661H555.647C552.215 195.992 550.117 192.941 548.973 189.7C548.592 189.128 548.401 188.365 548.211 187.793C547.257 191.035 546.113 193.895 543.444 195.42H532.004V182.073ZM554.693 225.927C554.693 220.779 559.079 216.775 564.036 216.775C566.324 216.775 568.993 217.537 570.709 219.444C572.235 220.969 573.379 223.448 573.379 225.927C573.379 228.405 572.235 230.884 570.709 232.6C568.993 234.316 566.324 235.651 564.036 235.651C559.079 235.651 554.693 230.693 554.693 225.927ZM531.813 225.927C531.813 220.779 536.199 216.775 541.156 216.775C543.444 216.775 546.113 217.537 547.829 219.444C549.355 220.969 550.499 223.448 550.499 225.927C550.499 228.405 549.355 230.884 547.829 232.6C546.113 234.316 543.444 235.651 541.156 235.651C536.199 235.651 531.813 230.693 531.813 225.927ZM555.71 198.661V181.883H568.675C578.208 186.459 598.038 188.175 608.715 188.747C617.486 189.128 626.828 189.319 636.171 188.747C645.895 188.365 655.428 186.649 664.008 185.696C676.02 184.361 686.126 183.789 692.418 182.073H703.858V195.42C695.85 200.187 682.884 203.047 667.631 205.716C650.28 209.148 637.887 210.864 620.346 210.864C601.66 210.864 569.819 208.957 555.71 198.661ZM699.133 148.707L715.34 146.609L717.628 164.723C718.009 169.299 717.819 173.493 717.247 177.116C716.865 180.929 716.103 183.599 714.768 186.649C712.671 189.509 709.429 191.988 703.9 195.42H692.46V182.073C696.464 180.929 699.515 179.976 701.421 179.213C701.803 175.781 701.231 173.684 700.849 167.201L699.133 148.707ZM689.028 227.071C689.028 221.541 693.413 216.965 699.133 216.965C701.612 216.965 704.663 217.728 706.379 219.825C708.095 221.541 709.429 224.211 709.429 227.071C709.429 229.549 708.095 232.409 706.379 234.125C704.663 236.032 701.612 237.557 699.133 237.557C696.464 237.557 693.985 236.032 691.888 234.125C689.981 232.028 689.028 229.549 689.028 227.071Z" fill="white"/>
</svg>
